<svg xmlns="http://www.w3.org/2000/svg" xmlns:xlink="http://www.w3.org/1999/xlink" aria-hidden="true" role="img" class="iconify iconify--logos" width="35.93" height="32" preserveAspectRatio="xMidYMid meet" viewBox="0 0 256 228"><path fill="#00D8FF" d="M210.483 73.824a171.49 171.49 0 0 0-8.24-2.597c.465-1.9.893-3.777 1.273-5.621c6.238-30.281 2.16-54.676-11.769-62.708c-13.355-7.7-35.196.329-57.254 19.526a171.23 171.23 0 0 0-6.375 5.848a155.866 155.866 0 0 0-4.241-3.917C100.759 3.829 77.587-4.822 63.673 3.233C49.33 11.558 45.379 37.05 51.995 68.478a170.974 170.974 0 0 0 1.892 8.48c-3.28.932-6.445 1.924-9.474 2.98C17.309 86.698 0 98.307 0 110.027c0 11.721 17.309 23.33 44.413 25.269a145.52 145.52 0 0 0 9.61 2.825a167.467 167.467 0 0 0-1.964 8.64c-6.616 31.428-2.665 56.92 11.678 65.245c13.914 8.055 37.086-.596 60.004-20.005a145.567 145.567 0 0 0 4.241-3.917a171.18 171.18 0 0 0 6.375 5.848c22.058 19.197 43.899 27.226 57.254 19.526c13.929-8.032 18.007-32.427 11.769-62.708a170.487 170.487 0 0 0-1.273-5.621c2.62-.84 5.197-1.703 7.721-2.597C256.823 119.977 256.823 107.977 210.483 73.824zM128.004 155.527c-13.532 0-24.5-10.968-24.5-24.5s10.968-24.5 24.5-24.5s24.5 10.968 24.5 24.5S141.536 155.527 128.004 155.527z"/></svg>







